<?xml version="1.0" standalone="no"?>
<!DOCTYPE svg PUBLIC "-//W3C//DTD SVG 20010904//EN" "http://www.w3.org/TR/2001/REC-SVG-20010904/DTD/svg10.dtd">
<!-- Created using Krita: https://krita.org -->
<svg xmlns="http://www.w3.org/2000/svg" 
    xmlns:xlink="http://www.w3.org/1999/xlink"
    xmlns:krita="http://krita.org/namespaces/svg/krita"
    xmlns:sodipodi="http://sodipodi.sourceforge.net/DTD/sodipodi-0.dtd"
    width="368.64pt"
    height="368.64pt"
    viewBox="0 0 368.64 368.64">
<defs/>
<path id="shape0" transform="matrix(0.72 0 0 0.72 0.000434903025228663 0)" fill="#ffffff" stroke="#000000" stroke-opacity="0" stroke-width="0" stroke-linecap="square" stroke-linejoin="bevel" d="M511.987 288.9C511.509 306.33 496.77 320 479.334 320L423.999 320L423.999 336C423.999 357.864 419.117 378.584 410.399 397.145L470.627 457.373C483.123 469.87 483.123 490.131 470.627 502.628C458.129 515.125 437.868 515.124 425.371 502.628L370.635 447.892C345.885 467.965 314.35 480 279.999 480L279.999 236C279.999 229.373 274.626 224 267.999 224L243.999 224C237.372 224 231.999 229.373 231.999 236L231.999 480C197.648 480 166.113 467.965 141.363 447.892L86.6274 502.628C74.1294 515.125 53.8684 515.124 41.3714 502.628C28.8754 490.131 28.8754 469.87 41.3714 457.373L101.599 397.145C92.8814 378.584 87.9994 357.864 87.9994 336L87.9994 320L32.6654 320C15.2294 320 0.490396 306.33 0.012396 288.9C-0.484604 270.816 14.0274 256 31.9994 256L87.9994 256L87.9994 197.255L41.3714 150.627C28.8754 138.13 28.8754 117.869 41.3714 105.372C53.8694 92.875 74.1294 92.875 86.6274 105.372L141.254 160L370.743 160L425.37 105.373C437.868 92.876 458.128 92.876 470.626 105.373C483.122 117.87 483.122 138.131 470.626 150.628L423.999 197.255L423.999 256L479.999 256C497.971 256 512.483 270.816 511.987 288.9ZM256.999 0C195.143 0 144.999 50.144 144.999 112L368.999 112C368.999 50.144 318.855 0 256.999 0Z"/>
</svg>
