<?xml version="1.0" standalone="no"?>
<!DOCTYPE svg PUBLIC "-//W3C//DTD SVG 20010904//EN" "http://www.w3.org/TR/2001/REC-SVG-20010904/DTD/svg10.dtd">
<!-- Created using Krita: https://krita.org -->
<svg xmlns="http://www.w3.org/2000/svg" 
    xmlns:xlink="http://www.w3.org/1999/xlink"
    xmlns:krita="http://krita.org/namespaces/svg/krita"
    xmlns:sodipodi="http://sodipodi.sourceforge.net/DTD/sodipodi-0.dtd"
    width="460.8pt"
    height="368.64pt"
    viewBox="0 0 460.8 368.64">
<defs/>
<path id="shape0" transform="matrix(0.72 0 0 0.72 -0.0179999999999999 0.0267654976733828)" fill="#ffffff" stroke="#000000" stroke-opacity="0" stroke-width="0" stroke-linecap="square" stroke-linejoin="bevel" d="M278.925 511.463L217.925 493.763C211.525 491.963 207.925 485.263 209.725 478.863L346.225 8.66283C348.025 2.26283 354.725 -1.33717 361.125 0.462826L422.125 18.1628C428.525 19.9628 432.125 26.6628 430.325 33.0628L293.825 503.263C291.925 509.663 285.325 513.363 278.925 511.463ZM164.925 399.263L208.425 352.863C213.025 347.963 212.725 340.163 207.625 335.663L117.025 255.963L207.625 176.263C212.725 171.763 213.125 163.963 208.425 159.063L164.925 112.663C160.425 107.863 152.825 107.563 147.925 112.163L3.825 247.163C-1.275 251.863 -1.275 259.963 3.825 264.663L147.925 399.763C152.825 404.363 160.425 404.163 164.925 399.263ZM492.125 399.863L636.225 264.763C641.325 260.063 641.325 251.963 636.225 247.263L492.125 112.063C487.325 107.563 479.725 107.763 475.125 112.563L431.625 158.963C427.025 163.863 427.325 171.663 432.425 176.163L523.025 255.963L432.425 335.663C427.325 340.163 426.925 347.963 431.625 352.863L475.125 399.263C479.625 404.163 487.225 404.363 492.125 399.863Z"/>
</svg>
